<?xml version="1.0" encoding="utf-8"?>
<!-- Generator: Adobe Illustrator 25.3.1, SVG Export Plug-In . SVG Version: 6.00 Build 0)  -->
<svg version="1.1" id="Layer_1" xmlns="http://www.w3.org/2000/svg" xmlns:xlink="http://www.w3.org/1999/xlink" x="0px" y="0px"
	 viewBox="0 0 330 206" style="enable-background:new 0 0 330 206;" xml:space="preserve">
<style type="text/css">
	.st0{display:none;}
	.st1{display:inline;fill:#FFFFFF;}
	.st2{display:inline;}
	.st3{fill:#558C3F;}
	.st4{fill:#83A73E;}
</style>
<g id="Reversed" class="st0">
	<path class="st1" d="M84.7,128c19,0,31.1-12.3,31.1-31.8c0-18.5-11.9-31.5-28.5-31.5H63.9V128L84.7,128L84.7,128z M75.6,73.7h10.9
		c9.9,0,16.8,9.2,16.8,22.3c0,13.8-7.1,22.7-18.1,22.7h-9.6V73.7z M164.6,118.5V97.4c0-8.3-0.9-10.7-4.8-13.8
		c-2.9-2.3-7.3-3.3-13.9-3.3c-6.8,0-11.1,1-15.1,3.6c-4.2,2.8-5.4,4.7-6.3,9.8l9,1.3c1.1-5.1,4.5-7.3,10.9-7.3
		c6.6,0,9.9,2.5,9.9,7.3v3.5c-1.2,0-2.2-0.1-2.9-0.1c-18.6,0-28.5,5.6-28.5,16.1c0,8.5,6.4,14.4,15.6,14.4c4.4,0,8.4-1.3,11.3-3.8
		c2-1.7,2.9-3,4.5-6.6c0.4,4.5,0.6,6,1.7,9.5H166C165,124.5,164.6,121.5,164.6,118.5z M154.2,108.4c0,7.6-4.8,12.5-12.1,12.5
		c-5.1,0-8.2-2.7-8.2-7c0-3.2,1.9-6,5.1-7.3c3.8-1.6,9-2.5,14.7-2.5h0.6L154.2,108.4L154.2,108.4z M215,81.2h-10.5v22.5
		c0,4.6-0.4,7.3-1.3,9.7c-1.6,3.8-5.5,6.5-9.2,6.5c-4.3,0-6.6-2.8-6.6-8.2V81.2h-10.8v32.7c0,9.4,5.1,15,13.8,15
		c3.9,0,7.2-1.1,9.9-3.4c2.5-2,3.5-3.6,5-7.7V128h9.8L215,81.2L215,81.2z M266.2,72.3c-6.2,0-9.6,2.7-11.3,8.9c-4-0.8-5.7-0.9-9-0.9
		c-11.9,0-19.4,5.4-19.4,14.1c0,4.7,1.8,7.6,6.5,10.7c-5.3,2.8-7.5,5.5-7.5,9.8c0,2.9,1.1,4.8,4.4,7.7c-5.1,2.8-6.8,5-6.8,9.5
		c0,8.4,7.6,12.7,22.7,12.7c15.1,0,24.4-5.9,24.4-15.4c0-7.6-6.2-12.8-15.3-12.8H241c-3.9,0-6.4-1.8-6.4-4.7c0-2.1,0.9-3.1,3.2-4.5
		c4.2,1,6,1.2,8.8,1.2c11.1,0,18.9-5.9,18.9-14.4c0-3.9-1.5-6.5-5.5-10.1c1.7-3.1,2.9-3.8,6.8-3.8h3.2v-8.1
		C270.1,72.3,266.2,72.3,266.2,72.3z M254.8,94.9c0,4.7-3.2,7.5-8.5,7.5s-8.6-3-8.6-7.7c0-4.7,3.5-7.9,8.8-7.9
		c5.1,0,8.1,2.7,8.3,7.5C254.8,94.5,254.8,94.7,254.8,94.9z M242.1,126.6h11.2c4.2,0,6.9,1.9,6.9,4.8c0,4.1-4.1,6.2-12.3,6.2
		c-9.6,0-15.6-3-15.6-8c0-1.5,0.5-2.5,2.2-4.1C238.1,126.4,239.5,126.6,242.1,126.6z M315.9,95.8c0-11-4.7-16.5-14.3-16.5
		c-6.7,0-11,3-13.8,10.1V64.7h-10.5V128h10.5v-24.3c0-9.8,3.8-15.3,10.4-15.3c4.6,0,7.2,3.1,7.2,8.9V128h10.5L315.9,95.8L315.9,95.8
		z M347.8,120.6c-7.1,0-11.2-4.9-11.2-13.6v-1.1h32.1c0-0.6,0-1,0-1.3c0-15-8.2-24.3-21.1-24.3c-13.2,0-22,9.9-22,24.5
		c0,14.8,8.4,24.2,21.6,24.2c10.3,0,17.6-5.1,20.7-14.5l-9.5-1.4C356.2,118.5,353.2,120.6,347.8,120.6z M336.6,99.1
		c1-7.4,4.6-11.4,10.7-11.4c6.1,0,10,4.4,10.4,11.4H336.6z M388.9,106.3c0-9.3,4.9-15.1,12.8-15.1h0.6V79.9c-0.6-0.1-1-0.1-1.4-0.1
		c-1.8,0-3.7,0.6-5.4,1.6c-3.8,2.4-5.8,5.4-7.4,11V81.2h-9.6V128h10.4L388.9,106.3L388.9,106.3z M431.2,119.8
		c-5.9,0-7.6-1.7-7.6-7.6V89.4h9.4v-8.2h-9.4v-13l-8.6,0.8l-1,12.1h-6.5v8.2h5.9v24.3c0,6.4,0.7,9,3.1,11.6c2.2,2.3,6.2,3.8,10,3.8
		c1.7,0,4.3-0.4,7.4-1v-8.2C432.9,119.8,432,119.8,431.2,119.8z M471,81.2l-9.8,30.8l-11.4-30.8h-11l16,43.9c0.7,1.7,1,2.7,1,2.8
		c0,4.7-3.5,8.3-8.3,8.3c-1.2,0-2.9-0.1-5.1-0.2v8.4c2.7,0.2,4.6,0.3,6.1,0.3c6.5,0,10.2-3.1,12.7-10.3l18.2-53.2
		C479.4,81.2,471,81.2,471,81.2z M63.9,193.2h10.8c5.2,0,8.6-2.2,8.6-6.4v-0.1c0-3.2-1.9-4.7-4.6-5.7c1.7-0.9,3.3-2.4,3.3-5.2v-0.1
		c0-1.6-0.5-2.8-1.6-3.9c-1.3-1.3-3.4-2.1-6.1-2.1H63.9V193.2z M68,179.8v-6.2h5.9c2.6,0,4.1,1.1,4.1,3v0.1c0,2.1-1.8,3.2-4.4,3.2
		L68,179.8L68,179.8z M68,189.6v-6.4h6.5c3.2,0,4.8,1.2,4.8,3.1v0.1c0,2.1-1.7,3.2-4.5,3.2L68,189.6L68,189.6z M99.1,193.6
		c6.1,0,10-3.5,10-10.4v-13.2H105v13.4c0,4.3-2.2,6.5-5.9,6.5c-3.7,0-5.9-2.3-5.9-6.7v-13.2h-4.1v13.4
		C89.2,190.1,93,193.6,99.1,193.6z M124.3,193.6c4.9,0,8.3-2.6,8.3-7v-0.1c0-3.9-2.6-5.6-7.5-6.8c-4.5-1.1-5.5-1.9-5.5-3.7V176
		c0-1.5,1.4-2.8,3.8-2.8c2.1,0,4.2,0.8,6.3,2.4l2.2-3.1c-2.4-1.9-5.1-2.9-8.5-2.9c-4.6,0-8,2.8-8,6.8v0.1c0,4.3,2.8,5.8,7.8,7
		c4.3,1,5.2,1.9,5.2,3.6v0.1c0,1.8-1.6,2.9-4.1,2.9c-2.9,0-5.1-1.1-7.4-3l-2.5,2.9C117.4,192.3,120.7,193.6,124.3,193.6z
		 M139.1,193.2h4.1v-23.3h-4.1V193.2z M150.9,193.2h4v-16.6l12.9,16.6h3.4v-23.3h-4v16.1l-12.5-16.1h-3.8L150.9,193.2L150.9,193.2z
		 M178.9,193.2h17.4v-3.7H183v-6.3h11.7v-3.7H183v-6.1h13.2v-3.7h-17.3L178.9,193.2L178.9,193.2z M210.9,193.6c4.9,0,8.3-2.6,8.3-7
		v-0.1c0-3.9-2.6-5.6-7.5-6.8c-4.5-1.1-5.5-1.9-5.5-3.7V176c0-1.5,1.4-2.8,3.8-2.8c2.1,0,4.2,0.8,6.3,2.4l2.2-3.1
		c-2.4-1.9-5.1-2.9-8.5-2.9c-4.6,0-7.9,2.8-7.9,6.8v0.1c0,4.3,2.8,5.8,7.8,7c4.3,1,5.3,1.9,5.3,3.6v0.1c0,1.8-1.6,2.9-4.1,2.9
		c-2.9,0-5.1-1.1-7.4-3l-2.5,2.9C204,192.3,207.4,193.6,210.9,193.6z M233.6,193.6c4.9,0,8.3-2.6,8.3-7v-0.1c0-3.9-2.6-5.6-7.5-6.8
		c-4.5-1.1-5.5-1.9-5.5-3.7V176c0-1.5,1.4-2.8,3.8-2.8c2.1,0,4.2,0.8,6.3,2.4l2.2-3.1c-2.4-1.9-5.1-2.9-8.4-2.9c-4.6,0-8,2.8-8,6.8
		v0.1c0,4.3,2.8,5.8,7.8,7c4.3,1,5.3,1.9,5.3,3.6v0.1c0,1.8-1.6,2.9-4.1,2.9c-2.9,0-5.1-1.1-7.4-3l-2.5,2.9
		C226.7,192.3,230,193.6,233.6,193.6z M267.6,193.6c4.9,0,8.3-2.6,8.3-7v-0.1c0-3.9-2.6-5.6-7.5-6.8c-4.5-1.1-5.5-1.9-5.5-3.7V176
		c0-1.5,1.4-2.8,3.8-2.8c2.1,0,4.2,0.8,6.3,2.4l2.2-3.1c-2.4-1.9-5.1-2.9-8.5-2.9c-4.6,0-8,2.8-8,6.8v0.1c0,4.3,2.8,5.8,7.8,7
		c4.3,1,5.2,1.9,5.2,3.6v0.1c0,1.8-1.6,2.9-4.1,2.9c-2.9,0-5.1-1.1-7.4-3l-2.5,2.9C260.6,192.3,264,193.6,267.6,193.6z M293,193.6
		c7.2,0,12.2-5.5,12.2-12.1v-0.1c0-6.6-5-12-12.1-12c-7.2,0-12.2,5.5-12.2,12.1v0.1C280.8,188.2,285.8,193.6,293,193.6z M293,189.9
		c-4.6,0-7.9-3.8-7.9-8.3v-0.1c0-4.5,3.2-8.2,7.9-8.2s7.9,3.8,7.9,8.3v0.1C300.9,186.2,297.7,189.9,293,189.9z M311.7,193.2H328
		v-3.7h-12.2v-19.6h-4.1V193.2z M342.5,193.6c6.1,0,10-3.5,10-10.4v-13.2h-4.1v13.4c0,4.3-2.2,6.5-5.9,6.5c-3.7,0-5.9-2.3-5.9-6.7
		v-13.2h-4.1v13.4C332.6,190.1,336.5,193.6,342.5,193.6z M365.2,193.2h4.1v-19.5h7.4v-3.8h-18.9v3.8h7.4L365.2,193.2L365.2,193.2z
		 M382.2,193.2h4.1v-23.3h-4.1V193.2z M405,193.6c7.2,0,12.2-5.5,12.2-12.1v-0.1c0-6.6-5-12-12.1-12s-12.2,5.5-12.2,12.1v0.1
		C392.8,188.2,397.8,193.6,405,193.6z M405,189.9c-4.6,0-7.9-3.8-7.9-8.3v-0.1c0-4.5,3.2-8.2,7.9-8.2c4.6,0,7.9,3.8,7.9,8.3v0.1
		C412.9,186.2,409.7,189.9,405,189.9z M423.7,193.2h4v-16.6l12.9,16.6h3.4v-23.3h-4v16.1l-12.5-16.1h-3.8L423.7,193.2L423.7,193.2z
		 M459.6,193.6c4.9,0,8.3-2.6,8.3-7v-0.1c0-3.9-2.6-5.6-7.5-6.8c-4.5-1.1-5.5-1.9-5.5-3.7V176c0-1.5,1.4-2.8,3.8-2.8
		c2.1,0,4.2,0.8,6.3,2.4l2.2-3.1c-2.4-1.9-5.1-2.9-8.5-2.9c-4.6,0-8,2.8-8,6.8v0.1c0,4.3,2.8,5.8,7.8,7c4.3,1,5.3,1.9,5.3,3.6v0.1
		c0,1.8-1.6,2.9-4.1,2.9c-2.9,0-5.1-1.1-7.4-3l-2.5,2.9C452.7,192.3,456.1,193.6,459.6,193.6z"/>
</g>
<g id="K" class="st0">
	<path class="st2" d="M84.7,128c19,0,31.1-12.3,31.1-31.8c0-18.5-11.9-31.5-28.5-31.5H63.9V128L84.7,128L84.7,128z M75.6,73.7h10.9
		c9.9,0,16.8,9.2,16.8,22.3c0,13.8-7.1,22.7-18.1,22.7h-9.6V73.7z M164.6,118.5V97.4c0-8.3-0.9-10.7-4.8-13.8
		c-2.9-2.3-7.3-3.3-13.9-3.3c-6.8,0-11.1,1-15.1,3.6c-4.2,2.8-5.4,4.7-6.3,9.8l9,1.3c1.1-5.1,4.5-7.3,10.9-7.3
		c6.6,0,9.9,2.5,9.9,7.3v3.5c-1.2,0-2.2-0.1-2.9-0.1c-18.6,0-28.5,5.6-28.5,16.1c0,8.5,6.4,14.4,15.6,14.4c4.4,0,8.4-1.3,11.3-3.8
		c2-1.7,2.9-3,4.5-6.6c0.4,4.5,0.6,6,1.7,9.5H166C165,124.5,164.6,121.5,164.6,118.5z M154.2,108.4c0,7.6-4.8,12.5-12.1,12.5
		c-5.1,0-8.2-2.7-8.2-7c0-3.2,1.9-6,5.1-7.3c3.8-1.6,9-2.5,14.7-2.5h0.6L154.2,108.4L154.2,108.4z M215,81.2h-10.5v22.5
		c0,4.6-0.4,7.3-1.3,9.7c-1.6,3.8-5.5,6.5-9.2,6.5c-4.3,0-6.6-2.8-6.6-8.2V81.2h-10.8v32.7c0,9.4,5.1,15,13.8,15
		c3.9,0,7.2-1.1,9.9-3.4c2.5-2,3.5-3.6,5-7.7V128h9.8L215,81.2L215,81.2z M266.2,72.3c-6.2,0-9.6,2.7-11.3,8.9c-4-0.8-5.7-0.9-9-0.9
		c-11.9,0-19.4,5.4-19.4,14.1c0,4.7,1.8,7.6,6.5,10.7c-5.3,2.8-7.5,5.5-7.5,9.8c0,2.9,1.1,4.8,4.4,7.7c-5.1,2.8-6.8,5-6.8,9.5
		c0,8.4,7.6,12.7,22.7,12.7c15.1,0,24.4-5.9,24.4-15.4c0-7.6-6.2-12.8-15.3-12.8H241c-3.9,0-6.4-1.8-6.4-4.7c0-2.1,0.9-3.1,3.2-4.5
		c4.2,1,6,1.2,8.8,1.2c11.1,0,18.9-5.9,18.9-14.4c0-3.9-1.5-6.5-5.5-10.1c1.7-3.1,2.9-3.8,6.8-3.8h3.2v-8.1
		C270.1,72.3,266.2,72.3,266.2,72.3z M254.8,94.9c0,4.7-3.2,7.5-8.5,7.5s-8.6-3-8.6-7.7c0-4.7,3.5-7.9,8.8-7.9
		c5.1,0,8.1,2.7,8.3,7.5C254.8,94.5,254.8,94.7,254.8,94.9z M242.1,126.6h11.2c4.2,0,6.9,1.9,6.9,4.8c0,4.1-4.1,6.2-12.3,6.2
		c-9.6,0-15.6-3-15.6-8c0-1.5,0.5-2.5,2.2-4.1C238.1,126.4,239.5,126.6,242.1,126.6z M315.9,95.8c0-11-4.7-16.5-14.3-16.5
		c-6.7,0-11,3-13.8,10.1V64.7h-10.5V128h10.5v-24.3c0-9.8,3.8-15.3,10.4-15.3c4.6,0,7.2,3.1,7.2,8.9V128h10.5L315.9,95.8L315.9,95.8
		z M347.8,120.6c-7.1,0-11.2-4.9-11.2-13.6v-1.1h32.1c0-0.6,0-1,0-1.3c0-15-8.2-24.3-21.1-24.3c-13.2,0-22,9.9-22,24.5
		c0,14.8,8.4,24.2,21.6,24.2c10.3,0,17.6-5.1,20.7-14.5l-9.5-1.4C356.2,118.5,353.2,120.6,347.8,120.6z M336.6,99.1
		c1-7.4,4.6-11.4,10.7-11.4c6.1,0,10,4.4,10.4,11.4H336.6z M388.9,106.3c0-9.3,4.9-15.1,12.8-15.1h0.6V79.9c-0.6-0.1-1-0.1-1.4-0.1
		c-1.8,0-3.7,0.6-5.4,1.6c-3.8,2.4-5.8,5.4-7.4,11V81.2h-9.6V128h10.4L388.9,106.3L388.9,106.3z M431.2,119.8
		c-5.9,0-7.6-1.7-7.6-7.6V89.4h9.4v-8.2h-9.4v-13l-8.6,0.8l-1,12.1h-6.5v8.2h5.9v24.3c0,6.4,0.7,9,3.1,11.6c2.2,2.3,6.2,3.8,10,3.8
		c1.7,0,4.3-0.4,7.4-1v-8.2C432.9,119.8,432,119.8,431.2,119.8z M471,81.2l-9.8,30.8l-11.4-30.8h-11l16,43.9c0.7,1.7,1,2.7,1,2.8
		c0,4.7-3.5,8.3-8.3,8.3c-1.2,0-2.9-0.1-5.1-0.2v8.4c2.7,0.2,4.6,0.3,6.1,0.3c6.5,0,10.2-3.1,12.7-10.3l18.2-53.2
		C479.4,81.2,471,81.2,471,81.2z M63.9,193.2h10.8c5.2,0,8.6-2.2,8.6-6.4v-0.1c0-3.2-1.9-4.7-4.6-5.7c1.7-0.9,3.3-2.4,3.3-5.2v-0.1
		c0-1.6-0.5-2.8-1.6-3.9c-1.3-1.3-3.4-2.1-6.1-2.1H63.9V193.2z M68,179.8v-6.2h5.9c2.6,0,4.1,1.1,4.1,3v0.1c0,2.1-1.8,3.2-4.4,3.2
		L68,179.8L68,179.8z M68,189.6v-6.4h6.5c3.2,0,4.8,1.2,4.8,3.1v0.1c0,2.1-1.7,3.2-4.5,3.2L68,189.6L68,189.6z M99.1,193.6
		c6.1,0,10-3.5,10-10.4v-13.2H105v13.4c0,4.3-2.2,6.5-5.9,6.5c-3.7,0-5.9-2.3-5.9-6.7v-13.2h-4.1v13.4
		C89.2,190.1,93,193.6,99.1,193.6z M124.3,193.6c4.9,0,8.3-2.6,8.3-7v-0.1c0-3.9-2.6-5.6-7.5-6.8c-4.5-1.1-5.5-1.9-5.5-3.7V176
		c0-1.5,1.4-2.8,3.8-2.8c2.1,0,4.2,0.8,6.3,2.4l2.2-3.1c-2.4-1.9-5.1-2.9-8.5-2.9c-4.6,0-8,2.8-8,6.8v0.1c0,4.3,2.8,5.8,7.8,7
		c4.3,1,5.2,1.9,5.2,3.6v0.1c0,1.8-1.6,2.9-4.1,2.9c-2.9,0-5.1-1.1-7.4-3l-2.5,2.9C117.4,192.3,120.7,193.6,124.3,193.6z
		 M139.1,193.2h4.1v-23.3h-4.1V193.2z M150.9,193.2h4v-16.6l12.9,16.6h3.4v-23.3h-4v16.1l-12.5-16.1h-3.8L150.9,193.2L150.9,193.2z
		 M178.9,193.2h17.4v-3.7H183v-6.3h11.7v-3.7H183v-6.1h13.2v-3.7h-17.3L178.9,193.2L178.9,193.2z M210.9,193.6c4.9,0,8.3-2.6,8.3-7
		v-0.1c0-3.9-2.6-5.6-7.5-6.8c-4.5-1.1-5.5-1.9-5.5-3.7V176c0-1.5,1.4-2.8,3.8-2.8c2.1,0,4.2,0.8,6.3,2.4l2.2-3.1
		c-2.4-1.9-5.1-2.9-8.5-2.9c-4.6,0-7.9,2.8-7.9,6.8v0.1c0,4.3,2.8,5.8,7.8,7c4.3,1,5.3,1.9,5.3,3.6v0.1c0,1.8-1.6,2.9-4.1,2.9
		c-2.9,0-5.1-1.1-7.4-3l-2.5,2.9C204,192.3,207.4,193.6,210.9,193.6z M233.6,193.6c4.9,0,8.3-2.6,8.3-7v-0.1c0-3.9-2.6-5.6-7.5-6.8
		c-4.5-1.1-5.5-1.9-5.5-3.7V176c0-1.5,1.4-2.8,3.8-2.8c2.1,0,4.2,0.8,6.3,2.4l2.2-3.1c-2.4-1.9-5.1-2.9-8.4-2.9c-4.6,0-8,2.8-8,6.8
		v0.1c0,4.3,2.8,5.8,7.8,7c4.3,1,5.3,1.9,5.3,3.6v0.1c0,1.8-1.6,2.9-4.1,2.9c-2.9,0-5.1-1.1-7.4-3l-2.5,2.9
		C226.7,192.3,230,193.6,233.6,193.6z M267.6,193.6c4.9,0,8.3-2.6,8.3-7v-0.1c0-3.9-2.6-5.6-7.5-6.8c-4.5-1.1-5.5-1.9-5.5-3.7V176
		c0-1.5,1.4-2.8,3.8-2.8c2.1,0,4.2,0.8,6.3,2.4l2.2-3.1c-2.4-1.9-5.1-2.9-8.5-2.9c-4.6,0-8,2.8-8,6.8v0.1c0,4.3,2.8,5.8,7.8,7
		c4.3,1,5.2,1.9,5.2,3.6v0.1c0,1.8-1.6,2.9-4.1,2.9c-2.9,0-5.1-1.1-7.4-3l-2.5,2.9C260.6,192.3,264,193.6,267.6,193.6z M293,193.6
		c7.2,0,12.2-5.5,12.2-12.1v-0.1c0-6.6-5-12-12.1-12c-7.2,0-12.2,5.5-12.2,12.1v0.1C280.8,188.2,285.8,193.6,293,193.6z M293,189.9
		c-4.6,0-7.9-3.8-7.9-8.3v-0.1c0-4.5,3.2-8.2,7.9-8.2s7.9,3.8,7.9,8.3v0.1C300.9,186.2,297.7,189.9,293,189.9z M311.7,193.2H328
		v-3.7h-12.2v-19.6h-4.1V193.2z M342.5,193.6c6.1,0,10-3.5,10-10.4v-13.2h-4.1v13.4c0,4.3-2.2,6.5-5.9,6.5c-3.7,0-5.9-2.3-5.9-6.7
		v-13.2h-4.1v13.4C332.6,190.1,336.5,193.6,342.5,193.6z M365.2,193.2h4.1v-19.5h7.4v-3.8h-18.9v3.8h7.4L365.2,193.2L365.2,193.2z
		 M382.2,193.2h4.1v-23.3h-4.1V193.2z M405,193.6c7.2,0,12.2-5.5,12.2-12.1v-0.1c0-6.6-5-12-12.1-12s-12.2,5.5-12.2,12.1v0.1
		C392.8,188.2,397.8,193.6,405,193.6z M405,189.9c-4.6,0-7.9-3.8-7.9-8.3v-0.1c0-4.5,3.2-8.2,7.9-8.2c4.6,0,7.9,3.8,7.9,8.3v0.1
		C412.9,186.2,409.7,189.9,405,189.9z M423.7,193.2h4v-16.6l12.9,16.6h3.4v-23.3h-4v16.1l-12.5-16.1h-3.8L423.7,193.2L423.7,193.2z
		 M459.6,193.6c4.9,0,8.3-2.6,8.3-7v-0.1c0-3.9-2.6-5.6-7.5-6.8c-4.5-1.1-5.5-1.9-5.5-3.7V176c0-1.5,1.4-2.8,3.8-2.8
		c2.1,0,4.2,0.8,6.3,2.4l2.2-3.1c-2.4-1.9-5.1-2.9-8.5-2.9c-4.6,0-8,2.8-8,6.8v0.1c0,4.3,2.8,5.8,7.8,7c4.3,1,5.3,1.9,5.3,3.6v0.1
		c0,1.8-1.6,2.9-4.1,2.9c-2.9,0-5.1-1.1-7.4-3l-2.5,2.9C452.7,192.3,456.1,193.6,459.6,193.6z"/>
</g>
<g id="_x34_c">
	<path class="st3" d="M16.5,101.8c15.1,0,24.7-9.8,24.7-25.2c0-14.7-9.4-25-22.7-25H0v50.3L16.5,101.8L16.5,101.8z M9.3,58.7h8.7
		c7.8,0,13.3,7.3,13.3,17.7c0,10.9-5.6,18-14.4,18H9.3V58.7z M79.9,94.3V77.6c0-6.6-0.7-8.5-3.8-11c-2.3-1.8-5.8-2.6-11.1-2.6
		c-5.4,0-8.8,0.8-12,2.9c-3.3,2.2-4.3,3.8-5,7.8l7.2,1.1c0.9-4.1,3.5-5.8,8.7-5.8c5.3,0,7.8,2,7.8,5.8v2.8c-1,0-1.7-0.1-2.3-0.1
		c-14.8,0-22.6,4.4-22.6,12.8c0,6.8,5.1,11.5,12.4,11.5c3.5,0,6.7-1.1,9-3c1.6-1.4,2.3-2.4,3.5-5.3c0.3,3.5,0.5,4.7,1.4,7.5h8
		C80.3,99.1,79.9,96.7,79.9,94.3z M71.7,86.3c0,6-3.8,9.9-9.6,9.9c-4.1,0-6.6-2.1-6.6-5.6c0-2.6,1.5-4.8,4.1-5.8c3-1.3,7.2-2,11.7-2
		h0.5L71.7,86.3L71.7,86.3z M120,64.7h-8.4v17.9c0,3.7-0.3,5.8-1.1,7.7c-1.3,3-4.4,5.2-7.3,5.2c-3.4,0-5.2-2.3-5.2-6.6V64.7h-8.6v26
		c0,7.5,4.1,11.9,10.9,11.9c3.1,0,5.7-0.9,7.8-2.7c2-1.6,2.8-2.9,4-6.1v8.1h7.8L120,64.7L120,64.7z M160.7,57.6
		c-4.9,0-7.6,2.1-9,7.1c-3.2-0.6-4.5-0.8-7.2-0.8c-9.5,0-15.4,4.3-15.4,11.2c0,3.7,1.4,6,5.2,8.5c-4.2,2.2-6,4.4-6,7.8
		c0,2.3,0.8,3.8,3.5,6.1c-4.1,2.2-5.4,4-5.4,7.5c0,6.7,6,10.1,18,10.1c12,0,19.4-4.7,19.4-12.2c0-6-4.9-10.2-12.1-10.2h-11.1
		c-3.1,0-5.1-1.4-5.1-3.8c0-1.7,0.7-2.5,2.6-3.5c3.3,0.8,4.8,1,7,1c8.8,0,15-4.7,15-11.5c0-3.1-1.2-5.2-4.4-8c1.4-2.5,2.3-3,5.4-3
		h2.6v-6.4C163.8,57.6,160.7,57.6,160.7,57.6z M151.6,75.5c0,3.7-2.6,6-6.8,6s-6.9-2.4-6.9-6.1c0-3.8,2.8-6.3,7-6.3
		c4.1,0,6.4,2.1,6.6,6C151.6,75.2,151.6,75.4,151.6,75.5z M141.5,100.7h8.9c3.3,0,5.5,1.5,5.5,3.8c0,3.2-3.2,4.9-9.8,4.9
		c-7.6,0-12.4-2.4-12.4-6.3c0-1.2,0.4-2,1.7-3.2C138.3,100.6,139.4,100.7,141.5,100.7z M200.2,76.3c0-8.7-3.8-13.1-11.4-13.1
		c-5.3,0-8.7,2.4-11,8V51.6h-8.4v50.3h8.4V82.6c0-7.8,3-12.1,8.3-12.1c3.7,0,5.7,2.5,5.7,7.1v24.3h8.4L200.2,76.3L200.2,76.3z
		 M225.5,96c-5.6,0-8.9-3.9-8.9-10.8v-0.9h25.5c0-0.5,0-0.8,0-1c0-11.9-6.5-19.3-16.8-19.3c-10.5,0-17.5,7.8-17.5,19.4
		c0,11.8,6.7,19.2,17.2,19.2c8.2,0,14-4.1,16.4-11.5l-7.5-1.1C232.1,94.3,229.8,96,225.5,96z M216.6,78.9c0.8-5.9,3.7-9,8.5-9
		c4.8,0,8,3.5,8.3,9H216.6z M258.1,84.6c0-7.4,3.9-12,10.2-12h0.5v-9c-0.5-0.1-0.8-0.1-1.1-0.1c-1.4,0-2.9,0.5-4.3,1.3
		c-3,1.9-4.6,4.3-5.9,8.7v-8.9h-7.6v37.2h8.3L258.1,84.6L258.1,84.6z M291.7,95.4c-4.7,0-6-1.4-6-6V71.2h7.5v-6.5h-7.5V54.4
		l-6.8,0.7l-0.8,9.6h-5.1v6.5h4.7v19.3c0,5.1,0.5,7.2,2.5,9.2c1.7,1.8,4.9,3,7.9,3c1.4,0,3.4-0.3,5.9-0.8v-6.6
		C293.1,95.4,292.4,95.4,291.7,95.4z M323.3,64.7l-7.8,24.5l-9-24.5h-8.7l12.7,34.9c0.5,1.4,0.8,2.1,0.8,2.3c0,3.8-2.8,6.6-6.6,6.6
		c-1,0-2.3-0.1-4.1-0.2v6.7c2.1,0.2,3.7,0.2,4.8,0.2c5.1,0,8.1-2.5,10.1-8.2L330,64.7L323.3,64.7z"/>
	<path class="st4" d="M0,153.7h8.6c4.1,0,6.8-1.8,6.8-5.1v-0.1c0-2.5-1.5-3.8-3.7-4.5c1.4-0.7,2.6-1.9,2.6-4.1v0
		c0-1.2-0.4-2.3-1.2-3.1c-1.1-1.1-2.7-1.6-4.8-1.6H0V153.7z M3.2,143v-4.9h4.7c2.1,0,3.2,0.9,3.2,2.4v0.1c0,1.7-1.4,2.5-3.5,2.5
		L3.2,143L3.2,143z M3.2,150.8v-5.1h5.2c2.6,0,3.8,0.9,3.8,2.5v0c0,1.7-1.3,2.5-3.6,2.5L3.2,150.8L3.2,150.8z M27.9,154
		c4.8,0,8-2.8,8-8.3v-10.5h-3.2v10.7c0,3.4-1.8,5.2-4.7,5.2c-2.9,0-4.7-1.9-4.7-5.3v-10.5H20v10.7C20,151.2,23.1,154,27.9,154z
		 M47.9,153.9c3.9,0,6.6-2.1,6.6-5.5v-0.1c0-3.1-2-4.5-5.9-5.4c-3.6-0.8-4.4-1.5-4.4-2.9v0c0-1.2,1.1-2.2,3-2.2c1.7,0,3.4,0.7,5,1.9
		l1.7-2.5c-1.9-1.5-4-2.3-6.7-2.3c-3.7,0-6.3,2.2-6.3,5.4v0c0,3.4,2.2,4.6,6.2,5.5c3.4,0.8,4.2,1.5,4.2,2.8v0c0,1.4-1.3,2.3-3.3,2.3
		c-2.3,0-4.1-0.9-5.8-2.4l-2,2.3C42.4,153,45.1,153.9,47.9,153.9z M59.7,153.7H63v-18.5h-3.3V153.7z M69.1,153.7h3.2v-13.2
		l10.2,13.2h2.7v-18.5H82V148l-9.9-12.8h-3L69.1,153.7L69.1,153.7z M91.3,153.7h13.9v-2.9H94.5v-5h9.3v-2.9h-9.3v-4.8H105v-2.9H91.3
		L91.3,153.7L91.3,153.7z M116.8,153.9c3.9,0,6.6-2.1,6.6-5.5v-0.1c0-3.1-2-4.5-5.9-5.4c-3.5-0.8-4.4-1.5-4.4-2.9v0
		c0-1.2,1.1-2.2,3-2.2c1.7,0,3.4,0.7,5,1.9l1.7-2.5c-1.9-1.5-4-2.3-6.7-2.3c-3.7,0-6.3,2.2-6.3,5.4v0c0,3.4,2.2,4.6,6.2,5.5
		c3.4,0.8,4.2,1.5,4.2,2.8v0c0,1.4-1.3,2.3-3.3,2.3c-2.3,0-4.1-0.9-5.8-2.4l-2,2.3C111.3,153,113.9,153.9,116.8,153.9z M134.8,153.9
		c3.9,0,6.6-2.1,6.6-5.5v-0.1c0-3.1-2-4.5-5.9-5.4c-3.5-0.8-4.4-1.5-4.4-2.9v0c0-1.2,1.1-2.2,3-2.2c1.7,0,3.4,0.7,5,1.9l1.7-2.5
		c-1.9-1.5-4-2.3-6.7-2.3c-3.7,0-6.3,2.2-6.3,5.4v0c0,3.4,2.2,4.6,6.2,5.5c3.4,0.8,4.2,1.5,4.2,2.8v0c0,1.4-1.3,2.3-3.3,2.3
		c-2.3,0-4.1-0.9-5.8-2.4l-2,2.3C129.3,153,131.9,153.9,134.8,153.9z M161.7,153.9c3.9,0,6.6-2.1,6.6-5.5v-0.1c0-3.1-2-4.5-5.9-5.4
		c-3.5-0.8-4.4-1.5-4.4-2.9v0c0-1.2,1.1-2.2,3-2.2c1.7,0,3.4,0.7,5,1.9l1.7-2.5c-1.9-1.5-4-2.3-6.7-2.3c-3.7,0-6.3,2.2-6.3,5.4v0
		c0,3.4,2.2,4.6,6.2,5.5c3.4,0.8,4.2,1.5,4.2,2.8v0c0,1.4-1.3,2.3-3.3,2.3c-2.3,0-4.1-0.9-5.8-2.4l-2,2.3
		C156.2,153,158.9,153.9,161.7,153.9z M181.9,154c5.7,0,9.7-4.4,9.7-9.6v-0.1c0-5.2-4-9.5-9.7-9.5c-5.7,0-9.7,4.4-9.7,9.6v0.1
		C172.3,149.7,176.2,154,181.9,154z M182,151c-3.7,0-6.3-3-6.3-6.6v-0.1c0-3.6,2.6-6.5,6.3-6.5s6.3,3,6.3,6.6v0.1
		C188.2,148.1,185.7,151,182,151z M196.8,153.7h13v-3H200v-15.5h-3.2V153.7z M221.3,154c4.8,0,8-2.8,8-8.3v-10.5H226v10.7
		c0,3.4-1.8,5.2-4.7,5.2c-2.9,0-4.7-1.9-4.7-5.3v-10.5h-3.3v10.7C213.4,151.2,216.5,154,221.3,154z M239.3,153.7h3.3v-15.5h5.9v-3
		h-15v3h5.9L239.3,153.7L239.3,153.7z M252.8,153.7h3.2v-18.5h-3.2V153.7z M270.9,154c5.7,0,9.7-4.4,9.7-9.6v-0.1
		c0-5.2-4-9.5-9.7-9.5c-5.7,0-9.7,4.4-9.7,9.6v0.1C261.2,149.7,265.2,154,270.9,154z M271,151c-3.7,0-6.3-3-6.3-6.6v-0.1
		c0-3.6,2.6-6.5,6.2-6.5c3.7,0,6.3,3,6.3,6.6v0.1C277.2,148.1,274.6,151,271,151z M285.7,153.7h3.2v-13.2l10.2,13.2h2.7v-18.5h-3.2
		V148l-9.9-12.8h-3L285.7,153.7L285.7,153.7z M314.3,153.9c3.9,0,6.6-2.1,6.6-5.5v-0.1c0-3.1-2-4.5-5.9-5.4
		c-3.5-0.8-4.4-1.5-4.4-2.9v0c0-1.2,1.1-2.2,3-2.2c1.7,0,3.4,0.7,5,1.9l1.7-2.5c-1.9-1.5-4-2.3-6.7-2.3c-3.7,0-6.3,2.2-6.3,5.4v0
		c0,3.4,2.2,4.6,6.2,5.5c3.4,0.8,4.2,1.5,4.2,2.8v0c0,1.4-1.3,2.3-3.3,2.3c-2.3,0-4.1-0.9-5.8-2.4l-2,2.3
		C308.8,153,311.5,153.9,314.3,153.9z"/>
</g>
</svg>
